<?xml version="1.0" standalone="no"?>
<!DOCTYPE svg PUBLIC "-//W3C//DTD SVG 20010904//EN"
 "http://www.w3.org/TR/2001/REC-SVG-20010904/DTD/svg10.dtd">
<svg version="1.0" xmlns="http://www.w3.org/2000/svg"
 width="512.000000pt" height="512.000000pt" viewBox="0 0 512.000000 512.000000"
 preserveAspectRatio="xMidYMid meet">

<g transform="translate(0.000000,512.000000) scale(0.100000,-0.100000)"
fill="#000000" stroke="none">
<path d="M450 5113 c-187 -32 -338 -170 -391 -358 -21 -75 -21 -4315 0 -4390
47 -165 160 -285 323 -342 51 -17 138 -18 2178 -18 2040 0 2127 1 2178 18 163
57 276 177 323 342 21 75 21 4315 0 4390 -46 162 -153 278 -317 341 -47 18
-119 19 -2159 20 -1160 1 -2121 -1 -2135 -3z m3767 -548 c164 -49 291 -189
323 -354 14 -74 14 -3228 0 -3302 -32 -165 -159 -305 -323 -354 -44 -13 -257
-15 -1657 -15 -1400 0 -1613 2 -1657 15 -164 49 -291 189 -323 354 -14 74 -14
3228 0 3302 31 163 158 304 319 353 71 22 3244 23 3318 1z"/>
<path d="M920 4369 c-64 -29 -117 -84 -140 -146 -20 -53 -20 -80 -20 -1663 0
-1583 0 -1610 20 -1663 23 -62 76 -117 140 -146 45 -20 58 -21 1640 -21 1582
0 1595 1 1640 21 64 29 117 84 140 146 20 53 20 80 20 1663 0 1583 0 1610 -20
1663 -23 62 -76 117 -140 146 -45 20 -58 21 -1640 21 -1582 0 -1595 -1 -1640
-21z m1545 -364 c145 -35 298 -146 347 -251 l23 -49 0 -715 0 -715 -26 -55
c-33 -70 -110 -145 -197 -192 -134 -73 -119 -72 -779 -76 l-593 -3 0 1035 0
1036 583 0 c469 -1 594 -3 642 -15z"/>
<path d="M1752 2988 l3 -653 283 -3 282 -2 0 655 0 655 -285 0 -285 0 2 -652z"/>
</g>
</svg>
