<?xml version="1.0" encoding="UTF-8"?>
<!DOCTYPE svg PUBLIC "-//W3C//DTD SVG 1.1//EN" "http://www.w3.org/Graphics/SVG/1.1/DTD/svg11.dtd">
<svg xmlns="http://www.w3.org/2000/svg" version="1.1" width="512px" height="512px" style="shape-rendering:geometricPrecision; text-rendering:geometricPrecision; image-rendering:optimizeQuality; fill-rule:evenodd; clip-rule:evenodd" xmlns:xlink="http://www.w3.org/1999/xlink">
<g><path style="opacity:0.995" fill="#000000" d="M 511.5,122.5 C 511.5,211.167 511.5,299.833 511.5,388.5C 505.915,407.25 493.582,419.083 474.5,424C 328.5,424.667 182.5,424.667 36.5,424C 17.4182,419.083 5.08483,407.25 -0.5,388.5C -0.5,299.833 -0.5,211.167 -0.5,122.5C 5.08483,103.75 17.4182,91.9172 36.5,87C 182.5,86.3333 328.5,86.3333 474.5,87C 493.569,91.9044 505.903,103.738 511.5,122.5 Z M 143.5,128.5 C 149.731,127.853 154.898,129.853 159,134.5C 185.333,167.5 211.667,200.5 238,233.5C 240.755,243.817 236.922,250.317 226.5,253C 217.506,253.5 208.506,253.666 199.5,253.5C 199.667,268.837 199.5,284.17 199,299.5C 197.61,305.891 193.776,310.058 187.5,312C 160.5,312.667 133.5,312.667 106.5,312C 101.427,310.594 97.9268,307.428 96,302.5C 95.5001,286.17 95.3334,269.837 95.5,253.5C 84.769,253.903 74.1023,253.403 63.5,252C 56.46,247.745 53.96,241.578 56,233.5C 82.6667,200.167 109.333,166.833 136,133.5C 138.479,131.686 140.979,130.019 143.5,128.5 Z M 106.5,343.5 C 133.835,343.333 161.169,343.5 188.5,344C 198.402,348.476 201.235,355.643 197,365.5C 194.635,368.869 191.468,371.036 187.5,372C 160.5,372.667 133.5,372.667 106.5,372C 95.7056,367.57 92.8723,360.07 98,349.5C 100.322,346.605 103.155,344.605 106.5,343.5 Z"/></g>
<g><path style="opacity:0.963" fill="#000000" d="M 146.5,166.5 C 148.417,167.909 150.25,169.576 152,171.5C 166.023,188.689 179.857,206.022 193.5,223.5C 189.204,224.328 184.871,224.828 180.5,225C 176,226.833 172.833,230 171,234.5C 170.5,250.83 170.333,267.163 170.5,283.5C 155.167,283.5 139.833,283.5 124.5,283.5C 124.941,266.777 124.441,250.11 123,233.5C 121.551,230.384 119.384,227.884 116.5,226C 111.213,224.989 105.879,224.156 100.5,223.5C 115.857,204.481 131.19,185.481 146.5,166.5 Z"/></g>
</svg>
