<?xml version="1.0" standalone="no"?>
<!DOCTYPE svg PUBLIC "-//W3C//DTD SVG 20010904//EN"
 "http://www.w3.org/TR/2001/REC-SVG-20010904/DTD/svg10.dtd">
<svg version="1.0" xmlns="http://www.w3.org/2000/svg"
 width="860.000000pt" height="1060.000000pt" viewBox="0 0 860.000000 1060.000000"
 preserveAspectRatio="xMidYMid meet">

<g transform="translate(0.000000,1060.000000) scale(0.100000,-0.100000)"
fill="#000000" stroke="none">
<path d="M2615 9089 c-446 -44 -916 -230 -1290 -510 -475 -354 -829 -904 -959
-1489 -64 -292 -61 -186 -61 -2035 l0 -1680 22 -140 c72 -450 240 -851 501
-1198 405 -536 1000 -884 1702 -994 170 -27 891 -26 1060 0 415 66 751 196
1090 422 589 393 992 1031 1107 1755 17 108 18 220 18 1840 0 1620 -1 1732
-18 1840 -115 726 -518 1365 -1112 1762 -146 97 -438 243 -597 297 -146 50
-331 96 -468 117 -123 19 -842 29 -995 13z m586 -372 c39 -30 39 -29 39 -936
l0 -880 38 -6 c143 -25 241 -97 300 -223 l27 -57 3 -614 c2 -538 1 -620 -13
-668 -21 -73 -51 -118 -118 -180 -88 -80 -114 -86 -382 -91 -151 -2 -250 0
-290 8 -115 22 -204 91 -262 202 l-28 53 0 650 0 650 27 57 c49 105 160 193
261 205 85 11 77 -86 77 909 l0 885 25 24 c23 24 29 25 152 25 85 -1 133 -5
144 -13z"/>
<path d="M6917 7993 c-4 -3 -7 -170 -7 -370 l0 -363 -298 0 c-324 0 -342 -3
-342 -55 0 -30 -16 -12 484 -554 432 -468 457 -490 530 -491 55 0 109 37 205
142 52 57 250 271 440 476 190 205 351 385 357 399 15 35 8 58 -22 72 -17 7
-123 11 -319 11 l-295 0 0 370 0 370 -363 0 c-200 0 -367 -3 -370 -7z"/>
</g>
</svg>
