<?xml version="1.0" encoding="UTF-8"?>
<!DOCTYPE svg PUBLIC "-//W3C//DTD SVG 1.1//EN" "http://www.w3.org/Graphics/SVG/1.1/DTD/svg11.dtd">
<svg xmlns="http://www.w3.org/2000/svg" version="1.1" width="512px" height="512px" style="shape-rendering:geometricPrecision; text-rendering:geometricPrecision; image-rendering:optimizeQuality; fill-rule:evenodd; clip-rule:evenodd" xmlns:xlink="http://www.w3.org/1999/xlink">
<g><path style="opacity:0.96" fill="#000000" d="M 253.5,-0.5 C 256.833,-0.5 260.167,-0.5 263.5,-0.5C 274.407,8.90317 284.907,18.9032 295,29.5C 304.7,40.3358 307.367,52.6691 303,66.5C 298.831,77.3332 292.331,86.4999 283.5,94C 276.928,97.9025 270.928,102.569 265.5,108C 266.833,109.333 268.167,110.667 269.5,112C 299.726,113.409 327.392,122.409 352.5,139C 375.004,155.837 387.171,178.337 389,206.5C 389.667,265.5 389.667,324.5 389,383.5C 384.814,439.414 357.314,478.914 306.5,502C 295.009,506.287 283.343,509.454 271.5,511.5C 260.833,511.5 250.167,511.5 239.5,511.5C 188.085,503.258 151.919,475.258 131,427.5C 125.566,413.332 122.566,398.665 122,383.5C 121.333,324.833 121.333,266.167 122,207.5C 125.303,173.87 141.803,149.036 171.5,133C 192.506,121.831 214.839,114.998 238.5,112.5C 239.602,99.7955 245.269,89.6288 255.5,82C 262.742,76.9674 269.242,71.1341 275,64.5C 278.572,59.8317 279.239,54.8317 277,49.5C 268.316,39.316 258.816,29.9827 248.5,21.5C 242.713,12.5189 244.379,5.18556 253.5,-0.5 Z M 241.5,138.5 C 242.5,138.5 243.5,138.5 244.5,138.5C 244.667,189.501 244.5,240.501 244,291.5C 211.479,289.329 179.646,283.329 148.5,273.5C 147.334,252.174 147.167,230.841 148,209.5C 149.585,189.255 158.751,173.421 175.5,162C 195.745,149.086 217.745,141.253 241.5,138.5 Z M 270.5,138.5 C 295.93,139.476 318.93,147.31 339.5,162C 351.479,171.788 358.979,184.288 362,199.5C 363.409,224.472 363.909,249.472 363.5,274.5C 333.39,284.922 302.39,290.588 270.5,291.5C 270.5,240.5 270.5,189.5 270.5,138.5 Z M 147.5,301.5 C 193.271,314.554 239.938,319.721 287.5,317C 313.434,315.39 338.601,310.223 363,301.5C 363.909,332.188 363.576,362.855 362,393.5C 352.251,441.915 323.418,472.082 275.5,484C 220.271,490.641 180.438,469.141 156,419.5C 151.116,407.296 148.449,394.629 148,381.5C 147.5,354.835 147.333,328.169 147.5,301.5 Z"/></g>
<g><path style="opacity:0.973" fill="#000000" d="M 231.5,150.5 C 232.5,150.5 233.5,150.5 234.5,150.5C 234.833,193.172 234.5,235.839 233.5,278.5C 225.854,279.505 218.187,279.338 210.5,278C 192.279,275.111 174.279,271.277 156.5,266.5C 155.439,251.852 155.273,237.185 156,222.5C 157.618,192.921 171.784,172.088 198.5,160C 209.427,156.125 220.427,152.958 231.5,150.5 Z"/></g>
</svg>
