<?xml version="1.0" standalone="no"?>
<!DOCTYPE svg PUBLIC "-//W3C//DTD SVG 20010904//EN"
 "http://www.w3.org/TR/2001/REC-SVG-20010904/DTD/svg10.dtd">
<svg version="1.0" xmlns="http://www.w3.org/2000/svg"
 width="512.000000pt" height="512.000000pt" viewBox="0 0 512.000000 512.000000"
 preserveAspectRatio="xMidYMid meet">

<g transform="translate(0.000000,512.000000) scale(0.100000,-0.100000)"
fill="#000000" stroke="none">
<path d="M450 5113 c-187 -32 -338 -170 -391 -358 -21 -75 -21 -4315 0 -4390
47 -165 160 -285 323 -342 51 -17 138 -18 2178 -18 2040 0 2127 1 2178 18 163
57 276 177 323 342 21 75 21 4315 0 4390 -46 162 -153 278 -317 341 -47 18
-119 19 -2159 20 -1160 1 -2121 -1 -2135 -3z m3767 -548 c164 -49 291 -189
323 -354 14 -74 14 -3228 0 -3302 -32 -165 -159 -305 -323 -354 -44 -13 -257
-15 -1657 -15 -1400 0 -1613 2 -1657 15 -164 49 -291 189 -323 354 -14 74 -14
3228 0 3302 31 163 158 304 319 353 71 22 3244 23 3318 1z"/>
<path d="M920 4369 c-64 -29 -117 -84 -140 -146 -20 -53 -20 -80 -20 -1663 0
-1583 0 -1610 20 -1663 23 -62 76 -117 140 -146 45 -20 58 -21 1640 -21 1582
0 1595 1 1640 21 64 29 117 84 140 146 20 53 20 80 20 1663 0 1583 0 1610 -20
1663 -23 62 -76 117 -140 146 -45 20 -58 21 -1640 21 -1582 0 -1595 -1 -1640
-21z m1188 -229 c50 -5 118 -19 149 -30 121 -42 233 -132 281 -225 23 -44 27
-65 30 -167 l4 -118 -266 0 -266 0 0 80 0 80 -255 0 -256 0 3 -137 3 -138 445
-241 c610 -330 585 -302 585 -644 0 -206 -1 -217 -24 -263 -51 -104 -204 -213
-351 -249 -78 -19 -710 -19 -795 0 -140 31 -283 129 -340 234 -28 49 -30 62
-33 176 l-4 122 261 0 261 0 0 -80 0 -80 255 0 255 0 0 143 0 144 -425 224
c-234 123 -447 240 -473 259 -53 40 -106 114 -122 168 -16 60 -13 389 5 449
43 144 230 272 430 293 105 11 537 11 643 0z"/>
</g>
</svg>
