<?xml version="1.0" encoding="UTF-8"?>
<!DOCTYPE svg PUBLIC "-//W3C//DTD SVG 1.1//EN" "http://www.w3.org/Graphics/SVG/1.1/DTD/svg11.dtd">
<svg xmlns="http://www.w3.org/2000/svg" version="1.1" width="512px" height="512px" style="shape-rendering:geometricPrecision; text-rendering:geometricPrecision; image-rendering:optimizeQuality; fill-rule:evenodd; clip-rule:evenodd" xmlns:xlink="http://www.w3.org/1999/xlink">
<g><path style="opacity:0.997" fill="#000000" d="M 111.5,-0.5 C 207.167,-0.5 302.833,-0.5 398.5,-0.5C 461.833,11.5 499.5,49.1667 511.5,112.5C 511.5,207.833 511.5,303.167 511.5,398.5C 499.5,461.833 461.833,499.5 398.5,511.5C 302.833,511.5 207.167,511.5 111.5,511.5C 49.1667,499.167 11.8333,461.833 -0.5,399.5C -0.5,303.833 -0.5,208.167 -0.5,112.5C 11.3764,49.6236 48.7097,11.9569 111.5,-0.5 Z M 97.5,235.5 C 108.167,235.5 118.833,235.5 129.5,235.5C 129.5,250.5 129.5,265.5 129.5,280.5C 213.5,280.5 297.5,280.5 381.5,280.5C 381.5,265.5 381.5,250.5 381.5,235.5C 392.167,235.5 402.833,235.5 413.5,235.5C 413.5,263.833 413.5,292.167 413.5,320.5C 308.167,320.5 202.833,320.5 97.5,320.5C 97.5,292.167 97.5,263.833 97.5,235.5 Z"/></g>
</svg>
