<?xml version="1.0" standalone="no"?>
<!DOCTYPE svg PUBLIC "-//W3C//DTD SVG 20010904//EN"
 "http://www.w3.org/TR/2001/REC-SVG-20010904/DTD/svg10.dtd">
<svg version="1.0" xmlns="http://www.w3.org/2000/svg"
 width="512.000000pt" height="512.000000pt" viewBox="0 0 512.000000 512.000000"
 preserveAspectRatio="xMidYMid meet">

<g transform="translate(0.000000,512.000000) scale(0.100000,-0.100000)"
fill="#000000" stroke="none">
<path d="M450 5113 c-187 -32 -338 -170 -391 -358 -21 -75 -21 -4315 0 -4390
47 -165 160 -285 323 -342 51 -17 138 -18 2178 -18 2040 0 2127 1 2178 18 163
57 276 177 323 342 21 75 21 4315 0 4390 -46 162 -153 278 -317 341 -47 18
-119 19 -2159 20 -1160 1 -2121 -1 -2135 -3z m3767 -548 c164 -49 291 -189
323 -354 14 -74 14 -3228 0 -3302 -32 -165 -159 -305 -323 -354 -44 -13 -257
-15 -1657 -15 -1400 0 -1613 2 -1657 15 -164 49 -291 189 -323 354 -14 74 -14
3228 0 3302 31 163 158 304 319 353 71 22 3244 23 3318 1z"/>
<path d="M920 4369 c-64 -29 -117 -84 -140 -146 -20 -53 -20 -80 -20 -1663 0
-1583 0 -1610 20 -1663 23 -62 76 -117 140 -146 45 -20 58 -21 1640 -21 1582
0 1595 1 1640 21 64 29 117 84 140 146 20 53 20 80 20 1663 0 1583 0 1610 -20
1663 -23 62 -76 117 -140 146 -45 20 -58 21 -1640 21 -1582 0 -1595 -1 -1640
-21z m643 -341 c3 -13 49 -241 102 -508 52 -267 99 -493 103 -502 4 -11 59
178 146 507 l139 525 212 0 212 0 12 -42 c7 -24 70 -261 140 -528 90 -339 131
-477 135 -460 6 24 206 1021 206 1027 0 2 119 3 265 3 l265 0 -6 -24 c-3 -14
-108 -479 -233 -1033 l-227 -1008 -264 -3 -265 -2 -114 427 c-63 236 -117 434
-121 441 -4 8 -60 -185 -126 -427 l-119 -441 -264 2 -265 3 -228 1015 c-125
558 -228 1023 -228 1033 0 16 19 17 259 17 l259 0 5 -22z"/>
</g>
</svg>
