<?xml version="1.0" encoding="utf-8"?>
<!-- Svg Vector Icons : http://www.onlinewebfonts.com/icon -->
<!DOCTYPE svg PUBLIC "-//W3C//DTD SVG 1.1//EN" "http://www.w3.org/Graphics/SVG/1.1/DTD/svg11.dtd">
<svg version="1.1" xmlns="http://www.w3.org/2000/svg" xmlns:xlink="http://www.w3.org/1999/xlink" x="0px" y="0px" viewBox="0 0 1000 1000" enable-background="new 0 0 1000 1000" xml:space="preserve">
<metadata> Svg Vector Icons : http://www.onlinewebfonts.com/icon </metadata>
<g><path d="M204.8,896.8c26.9,0,48.7-20.6,48.7-46s-21.8-46-48.7-46c-26.9,0-48.7,20.6-48.7,46S177.9,896.8,204.8,896.8z"/><path d="M157.1,351.2h357.1c9,0,16.2-10.3,16.2-23.1c0-12.8-7.3-23.1-16.2-23.1H157.1c-9,0-16.2,10.3-16.2,23.1C140.9,340.9,148.1,351.2,157.1,351.2z"/><path d="M157.1,156.1h357.1c9,0,16.2-10.3,16.2-23.1c0-12.8-7.3-23.1-16.2-23.1H157.1c-9,0-16.2,10.3-16.2,23.1C140.9,145.8,148.1,156.1,157.1,156.1z"/><path d="M372.4,499.4H156.1c-9,0-16.2,10.3-16.2,23.1s7.3,23.1,16.2,23.1h193C355.8,529.6,363.6,514.2,372.4,499.4z"/><path d="M337.3,804.9c-0.9,0-1.8-0.1-2.6-0.1c-26.9,0-48.7,20.6-48.7,46s21.8,46,48.7,46c15.2,0,28.7-6.5,37.6-16.8C358,856.5,346.2,831.4,337.3,804.9z"/><path d="M659.3,69.5c0-33.9-29-61.3-64.9-61.3H74.9C39,8.3,10,35.7,10,69.5v857.9c0,33.9,29,61.3,64.9,61.3h306.5v-0.6c13-2.6,22.8-13.8,22.8-27.1s-9.8-24.5-22.8-27.1v-0.2h-1.4c-1.5-0.2-3-0.4-4.6-0.4c-1.6,0-3.1,0.1-4.6,0.4H109.5c-15.5,0-28.1-9.9-28.1-22.2V667.2h238.9c1.4-24.2,5.2-47.8,11-70.5H81.4V451.4h324.5c15-18,31.7-34.5,49.8-49.3H82.4V256.9h506.6v19c-0.3,1.7-0.5,3.5-0.5,5.2c0,1.8,0.2,3.5,0.5,5.2v0.2h0c2.9,14.6,17.4,25.7,34.8,25.7c17.4,0,31.9-11.1,34.8-25.7h0.7V69.5z M587.9,198H81.4V97.1c0-13.9,12.6-25.2,28.1-25.2h450.3c15.5,0,28.1,11.3,28.1,25.2V198z"/><path d="M690.6,392.8c-165.4,0-299.4,134.1-299.4,299.5c0,165.4,134.1,299.4,299.4,299.4c165.4,0,299.4-134.1,299.4-299.4C990,526.9,855.9,392.8,690.6,392.8z M892.2,731.2c-10.8,8.6-23.8,13-38.9,13v-3.3H733.5v115c0,15.1-4.9,28.1-14.6,38.9c-9.7,10.8-22.1,16.2-37.3,16.2c-15.1,0-27-5.4-35.6-16.2c-8.6-10.8-13-23.8-13-38.9v-115H527.8c-15.1,0-28.1-3.8-38.9-11.3c-10.8-7.6-16.2-18.9-16.2-34c0-15.1,5.4-28.1,16.2-38.9c10.8-10.8,23.8-16.2,38.9-16.2h105.3V528.7c0-15.1,4.3-28.1,12.9-38.9c8.6-10.8,20.5-16.2,35.6-16.2c15.1,0,27.5,5.4,37.3,16.2c9.7,10.8,14.6,23.8,14.6,38.9v111.8h119.9c15.1,0,28.1,5.4,38.9,16.2c10.8,10.8,16.2,23.8,16.2,38.9C908.4,710.7,903,722.5,892.2,731.2z"/></g>
</svg>