<?xml version="1.0" standalone="no"?>
<!DOCTYPE svg PUBLIC "-//W3C//DTD SVG 20010904//EN"
 "http://www.w3.org/TR/2001/REC-SVG-20010904/DTD/svg10.dtd">
<svg version="1.0" xmlns="http://www.w3.org/2000/svg"
 width="981.000000pt" height="1019.000000pt" viewBox="0 0 981.000000 1019.000000"
 preserveAspectRatio="xMidYMid meet">

<g transform="translate(0.000000,1019.000000) scale(0.100000,-0.100000)"
fill="#000000" stroke="none">
<path d="M3022 8579 c-18 -5 -50 -27 -72 -49 -91 -91 -72 -230 42 -299 l43
-26 2545 0 2545 0 42 22 c84 46 124 135 97 222 -16 52 -34 76 -84 111 l-35 25
-2545 2 c-1587 1 -2557 -2 -2578 -8z"/>
<path d="M3383 6690 l-21 -70 22 -5 c11 -2 48 -7 81 -10 141 -15 283 -66 362
-131 87 -71 161 -213 259 -492 63 -180 118 -365 369 -1241 l187 -653 -53 -53
c-85 -83 -1377 -1323 -1564 -1501 -404 -384 -719 -633 -902 -712 -120 -52
-269 -90 -419 -107 l-61 -7 -21 -69 -20 -69 901 2 901 3 19 64 c10 34 17 65
15 66 -2 2 -51 11 -108 20 -257 40 -343 99 -343 235 0 143 20 165 1416 1525
174 171 320 311 325 312 6 3 249 -821 404 -1372 58 -207 88 -346 88 -415 0
-81 -67 -166 -174 -219 -79 -40 -155 -59 -293 -73 l-113 -12 -20 -60 c-11 -33
-20 -64 -20 -68 0 -4 478 -7 1062 -6 l1062 3 19 64 c10 34 17 64 15 66 -2 1
-73 9 -158 18 -180 18 -256 40 -360 101 -138 81 -213 179 -305 401 -123 298
-218 596 -440 1390 -97 347 -182 651 -190 676 l-13 46 821 810 c952 937 1080
1057 1282 1194 184 124 482 238 697 264 32 4 61 12 66 19 9 10 42 115 42 130
0 3 -411 6 -914 6 l-914 0 -22 -66 c-12 -36 -19 -68 -16 -71 4 -4 61 -12 129
-20 162 -17 243 -43 293 -94 37 -38 38 -41 38 -112 0 -61 -4 -80 -29 -122 -89
-155 -257 -363 -476 -589 -144 -150 -1090 -1058 -1096 -1052 -3 2 -307 1080
-393 1391 -85 308 -84 388 9 488 56 61 169 96 317 98 38 0 91 4 118 7 l50 7
18 60 c10 33 18 63 18 68 0 4 -434 7 -963 7 l-964 0 -20 -70z"/>
</g>
</svg>
