<?xml version="1.0" encoding="utf-8"?>
<!-- Svg Vector Icons : http://www.onlinewebfonts.com/icon -->
<!DOCTYPE svg PUBLIC "-//W3C//DTD SVG 1.1//EN" "http://www.w3.org/Graphics/SVG/1.1/DTD/svg11.dtd">
<svg version="1.1" xmlns="http://www.w3.org/2000/svg" xmlns:xlink="http://www.w3.org/1999/xlink" x="0px" y="0px" viewBox="0 0 1000 1000" enable-background="new 0 0 1000 1000" xml:space="preserve">
<metadata> Svg Vector Icons : http://www.onlinewebfonts.com/icon </metadata>
<g><g transform="translate(0.000000,512.000000) scale(0.100000,-0.100000)"><path d="M4550.1,5003.9c-928.7-95.7-1771.2-423.2-2512.3-976.6c-239.4-180-760.2-700.8-938.3-938.3c-1332.7-1784.6-1332.7-4147.6,0-5932.2c176.2-237.4,697-758.3,934.5-934.4c1533.8-1145.1,3508-1319.3,5202.7-457.6c764,390.6,1449.6,1018.7,1914.9,1755.9c513.2,815.7,783.2,1817.2,744.9,2774.6c-42.1,1026.4-379.1,1970.4-993.8,2791.9c-170.4,227.9-578.3,649.1-810,836.8c-674,547.7-1507,915.3-2374.4,1045.5C5429.1,5013.5,4814.4,5032.7,4550.1,5003.9z M7569.9,2154.6l1106.8-850.2L7455,389.1L6235.2-526.2l-5.7,612.8l-3.8,610.8h-919.1h-919.1v612.8v612.8h919.1h919.1v633.8v633.8l120.6-93.8C6411.4,3045.1,6962.9,2621.9,7569.9,2154.6z M4693.7-451.5h919.1v-612.8V-1677h-919.1h-919.1l-3.8-628.1l-5.7-630l-1221.7,938.3c-670.2,515.1-1217.8,940.2-1215.9,944c3.8,1.9,553.4,415.5,1221.7,917.2L3765,775.9l5.7-614.7l3.8-612.8H4693.7z"/></g></g>
</svg>