<?xml version="1.0"?>
<svg xmlns="http://www.w3.org/2000/svg" viewBox="0 0 16 16">
    <path d="M 1.5 2 C 1.224 2 1 2.224 1 2.5 L 1 6.5 C 1 6.776 1.224 7 1.5 7 L 7.5 7 C 7.776 7 8 6.776 8 6.5 L 8 2.5 C 8 2.224 7.776 2 7.5 2 L 1.5 2 z M 9 2 L 9 3 L 10 3 L 10 9 L 2 9 L 2 8 L 1 8 L 1 9.5 A 0.50005 0.50005 0 0 0 1.5 10 L 10.5 10 A 0.50005 0.50005 0 0 0 11 9.5 L 11 2.5 A 0.50005 0.50005 0 0 0 10.5 2 L 9 2 z M 12 2 L 12 3 L 13 3 L 13 12 L 2 12 L 2 11 L 1 11 L 1 12.5 A 0.50005 0.50005 0 0 0 1.5 13 L 13.5 13 A 0.50005 0.50005 0 0 0 14 12.5 L 14 2.5 A 0.50005 0.50005 0 0 0 13.5 2 L 12 2 z"/>
</svg>
