<svg xmlns="http://www.w3.org/2000/svg" version="1.0" width="512.000000pt" height="512.000000pt" viewBox="0 0 512.000000 512.000000" preserveAspectRatio="xMidYMid meet">

<g transform="translate(0.000000,512.000000) scale(0.100000,-0.100000)" fill="#ffffff" stroke="none">
<path d="M1820 5114 c-297 -35 -512 -104 -720 -232 -345 -212 -594 -527 -719 -909 -70 -213 -81 -335 -81 -872 l0 -426 -57 -30 c-114 -59 -205 -179 -232 -303 -15 -70 -16 -1895 -1 -1973 34 -180 179 -325 359 -359 74 -14 3088 -14 3162 0 180 34 325 179 359 359 14 73 14 1889 0 1962 -34 180 -179 325 -359 359 -35 6 -460 10 -1193 10 l-1139 0 4 453 c4 482 3 479 57 607 73 173 227 326 405 402 97 41 162 53 285 53 65 0 139 -6 170 -14 229 -58 429 -227 520 -441 47 -113 52 -145 57 -390 6 -269 12 -294 83 -330 37 -19 58 -20 370 -20 312 0 333 1 370 20 26 14 47 34 61 62 21 41 21 50 16 303 -6 266 -16 351 -57 499 -114 410 -374 753 -740 978 -169 104 -400 188 -600 218 -80 12 -322 21 -380 14z m211 -3024 c187 -36 330 -184 361 -376 30 -181 -68 -372 -235 -459 l-57 -30 0 -253 c0 -234 -2 -256 -20 -292 -23 -45 -80 -80 -130 -80 -50 0 -107 35 -130 80 -18 36 -20 58 -20 292 l0 253 -57 30 c-167 87 -265 278 -235 459 42 255 276 423 523 376z" fill="#ffffff"/>
<path d="M4598 3743 c-314 -158 -334 -170 -355 -208 -43 -76 -20 -160 53 -202 72 -42 84 -38 446 145 314 157 334 169 355 207 28 50 29 94 3 145 -23 46 -81 80 -134 80 -25 0 -128 -47 -368 -167z" fill="#ffffff"/>
<path d="M4298 2989 c-43 -22 -78 -81 -78 -129 0 -50 35 -107 80 -130 37 -19 58 -20 370 -20 312 0 333 1 370 20 45 23 80 80 80 130 0 50 -35 107 -80 130 -37 19 -58 20 -372 20 -312 -1 -335 -2 -370 -21z" fill="#ffffff"/>
<path d="M4296 2387 c-73 -42 -96 -126 -53 -202 21 -38 41 -50 355 -207 240 -121 343 -168 368 -168 53 0 111 34 134 80 26 51 25 95 -3 145 -21 38 -41 50 -355 208 -362 182 -374 186 -446 144z" fill="#ffffff"/>
</g>
</svg>