<?xml version="1.0" encoding="utf-8"?>
<!-- Svg Vector Icons : http://www.onlinewebfonts.com/icon -->
<!DOCTYPE svg PUBLIC "-//W3C//DTD SVG 1.1//EN" "http://www.w3.org/Graphics/SVG/1.1/DTD/svg11.dtd">
<svg version="1.1" xmlns="http://www.w3.org/2000/svg" xmlns:xlink="http://www.w3.org/1999/xlink" x="0px" y="0px" viewBox="0 0 1000 1000" enable-background="new 0 0 1000 1000" xml:space="preserve">
<metadata> Svg Vector Icons : http://www.onlinewebfonts.com/icon </metadata>
<g><g transform="translate(0.000000,224.000000) scale(0.100000,-0.100000)"><path d="M4434.9,2086.5C3699,1880.6,3090.1,1232.3,2936.8,496.4c-70.1-337.3-26.3-889.2,92-1200.3c192.7-521.3,687.7-1016.3,1217.8-1226.5c210.3-78.8,332.9-96.4,753.4-96.4c420.5,0,543.2,17.5,753.4,96.4c525.7,210.3,1016.3,696.5,1222.1,1226.5C7120.2-340.3,7120.2,439.5,6980,803c-210.3,530-705.3,1020.6-1226.5,1222.1C5424.9,2147.8,4772.2,2178.5,4434.9,2086.5z"/><path d="M3339.8-2859c-332.9-245.3-814.8-1016.3-1283.5-2050c-398.6-880.5-560.7-1305.4-560.7-1467.5c0-451.2,420.5-1011.9,889.2-1187.1c249.7-96.4,302.3-96.4,2615.1-96.4s2365.5,0,2615.1,96.4c468.7,175.2,889.2,735.9,889.2,1187.1c0,162.1-166.5,595.7-560.7,1463.1C7466.2-3862.1,6988.7-3104.3,6660.2-2859l-144.6,105.1H5000H3484.4L3339.8-2859z"/></g></g>
</svg>