{
  "asset": {
    "version": "2.0",
    "generator": "THREE.GLTFExporter"
  },
  "scenes": [
    {
      "nodes": [
        9,
        10
      ]
    }
  ],
  "scene": 0,
  "nodes": [
    {
      "matrix": [
        1,
        0,
        0,
        0,
        0,
        1,
        0,
        0,
        0,
        0,
        1,
        0,
        0,
        0,
        -1,
        1
      ]
    },
    {
      "matrix": [
        1,
        0,
        0,
        0,
        0,
        3.422854177870249e-8,
        -0.9999999657714582,
        0,
        0,
        0.9999999657714582,
        3.422854177870249e-8,
        0,
        0,
        0,
        0,
        1
      ],
      "name": "Light_Orientation",
      "extras": {
        "name": "Light_Orientation"
      },
      "extensions": {
        "KHR_lights_punctual": {
          "light": 0
        }
      },
      "children": [
        0
      ]
    },
    {
      "matrix": [
        -0.7989888043555755,
        -0.4058621806999456,
        -0.4437259926716255,
        0,
        -0.599437337890957,
        0.5962865441772571,
        0.5339636970246326,
        0,
        0.04787216557810403,
        0.69261695191173,
        -0.719715214883708,
        0,
        -5,
        5,
        5,
        1
      ],
      "name": "Light",
      "extras": {
        "name": "Light"
      },
      "children": [
        1
      ]
    },
    {
      "matrix": [
        0.6859206666375535,
        -4.011331711240018e-9,
        -0.7276763385868836,
        0,
        0.6515582236083066,
        0.4452714146389205,
        0.6141703952861253,
        0,
        0.32401347963873484,
        -0.8953956629320512,
        0.30542086411130853,
        0,
        7.358891487121582,
        4.958309173583984,
        6.925790786743164,
        1
      ],
      "name": "Camera",
      "extras": {
        "name": "Camera"
      }
    },
    {
      "matrix": [
        1,
        0,
        0,
        0,
        0,
        1,
        0,
        0,
        0,
        0,
        1,
        0,
        0,
        0,
        -1,
        1
      ]
    },
    {
      "matrix": [
        1,
        0,
        0,
        0,
        0,
        3.422854177870249e-8,
        -0.9999999657714582,
        0,
        0,
        0.9999999657714582,
        3.422854177870249e-8,
        0,
        0,
        0,
        0,
        1
      ],
      "name": "Light001_Orientation",
      "extras": {
        "name": "Light.001_Orientation"
      },
      "extensions": {
        "KHR_lights_punctual": {
          "light": 1
        }
      },
      "children": [
        4
      ]
    },
    {
      "matrix": [
        -0.42380365551784793,
        0.7896186651737986,
        -0.44372599842658644,
        0,
        0.582596295739541,
        0.6127514887965648,
        0.5339636241332766,
        0,
        0.6935214158633372,
        -0.032217375996909325,
        -0.7197152282163088,
        0,
        5,
        5,
        5,
        1
      ],
      "name": "Light001",
      "extras": {
        "name": "Light.001"
      },
      "children": [
        5
      ]
    },
    {
      "name": "Suzanne",
      "extras": {
        "name": "Suzanne"
      },
      "mesh": 0
    },
    {
      "matrix": [
        8.945283889770508,
        0,
        0,
        0,
        0,
        8.945283889770508,
        0,
        0,
        0,
        0,
        8.945283889770508,
        0,
        0,
        -1.1331887245178223,
        0,
        1
      ],
      "name": "Plane",
      "extras": {
        "name": "Plane"
      },
      "mesh": 1
    },
    {
      "name": "Scene",
      "children": [
        2,
        3,
        6,
        7,
        8
      ]
    },
    {
      "camera": 0
    }
  ],
  "extensions": {
    "KHR_lights_punctual": {
      "lights": [
        {
          "name": "Light_Orientation",
          "color": [
            0.0008765847887843847,
            1,
            0
          ],
          "intensity": 1000,
          "type": "spot",
          "spot": {
            "innerConeAngle": 0.556323685321221,
            "outerConeAngle": 0.6544984579086304
          }
        },
        {
          "name": "Light001_Orientation",
          "color": [
            1,
            0,
            0.009828922338783741
          ],
          "intensity": 1000,
          "type": "spot",
          "spot": {
            "innerConeAngle": 0.556323685321221,
            "outerConeAngle": 0.6544984579086304
          }
        }
      ]
    }
  },
  "bufferViews": [
    {
      "buffer": 0,
      "byteOffset": 0,
      "byteLength": 6672,
      "target": 34962,
      "byteStride": 12
    },
    {
      "buffer": 0,
      "byteOffset": 6672,
      "byteLength": 6672,
      "target": 34962,
      "byteStride": 12
    },
    {
      "buffer": 0,
      "byteOffset": 13344,
      "byteLength": 4448,
      "target": 34962,
      "byteStride": 8
    },
    {
      "buffer": 0,
      "byteOffset": 17792,
      "byteLength": 8896,
      "target": 34962,
      "byteStride": 16
    },
    {
      "buffer": 0,
      "byteOffset": 26688,
      "byteLength": 5808,
      "target": 34963
    },
    {
      "buffer": 0,
      "byteOffset": 32496,
      "byteLength": 48,
      "target": 34962,
      "byteStride": 12
    },
    {
      "buffer": 0,
      "byteOffset": 32544,
      "byteLength": 48,
      "target": 34962,
      "byteStride": 12
    },
    {
      "buffer": 0,
      "byteOffset": 32592,
      "byteLength": 32,
      "target": 34962,
      "byteStride": 8
    },
    {
      "buffer": 0,
      "byteOffset": 32624,
      "byteLength": 12,
      "target": 34963
    }
  ],
  "buffers": [
    {
      "byteLength": 32636,
      "uri": "data:application/octet-stream;base64,"
    }
  ],
  "accessors": [
    {
      "bufferView": 0,
      "componentType": 5126,
      "count": 556,
      "max": [
        1.3671875,
        0.984375,
        0.8515625
      ],
      "min": [
        -1.3671875,
        -0.984375,
        -0.8515625
      ],
      "type": "VEC3"
    },
    {
      "bufferView": 1,
      "componentType": 5126,
      "count": 556,
      "max": [
        0.9989318251609802,
        0.999725341796875,
        0.999969482421875
      ],
      "min": [
        -0.9989318251609802,
        -0.9862666726112366,
        -0.9753105044364929
      ],
      "type": "VEC3"
    },
    {
      "bufferView": 2,
      "componentType": 5126,
      "count": 556,
      "max": [
        0.9998559951782227,
        0.9998559951782227
      ],
      "min": [
        0.00014400000509340316,
        0.0951489806175232
      ],
      "type": "VEC2"
    },
    {
      "bufferView": 3,
      "componentType": 5126,
      "count": 556,
      "max": [
        1,
        0.9830003380775452,
        0.9853794574737549,
        1
      ],
      "min": [
        -0.9731382131576538,
        -0.9853494167327881,
        -0.9852721691131592,
        -1
      ],
      "type": "VEC4"
    },
    {
      "bufferView": 4,
      "componentType": 5123,
      "count": 2904,
      "max": [
        555
      ],
      "min": [
        0
      ],
      "type": "SCALAR"
    },
    {
      "bufferView": 5,
      "componentType": 5126,
      "count": 4,
      "max": [
        1,
        0,
        1
      ],
      "min": [
        -1,
        0,
        -1
      ],
      "type": "VEC3"
    },
    {
      "bufferView": 6,
      "componentType": 5126,
      "count": 4,
      "max": [
        0,
        1,
        0
      ],
      "min": [
        0,
        1,
        0
      ],
      "type": "VEC3"
    },
    {
      "bufferView": 7,
      "componentType": 5126,
      "count": 4,
      "max": [
        1,
        1
      ],
      "min": [
        0,
        0
      ],
      "type": "VEC2"
    },
    {
      "bufferView": 8,
      "componentType": 5123,
      "count": 6,
      "max": [
        3
      ],
      "min": [
        0
      ],
      "type": "SCALAR"
    }
  ],
  "materials": [
    {
      "pbrMetallicRoughness": {
        "baseColorFactor": [
          0.8000000715255737,
          0.7712320685386658,
          0,
          1
        ],
        "metallicFactor": 1,
        "roughnessFactor": 0.2267441749572754
      },
      "doubleSided": true,
      "name": "Material.001"
    },
    {
      "pbrMetallicRoughness": {
        "metallicFactor": 1,
        "roughnessFactor": 1
      }
    }
  ],
  "meshes": [
    {
      "primitives": [
        {
          "mode": 4,
          "attributes": {
            "POSITION": 0,
            "NORMAL": 1,
            "TEXCOORD_0": 2,
            "TANGENT": 3
          },
          "indices": 4,
          "material": 0
        }
      ]
    },
    {
      "primitives": [
        {
          "mode": 4,
          "attributes": {
            "POSITION": 5,
            "NORMAL": 6,
            "TEXCOORD_0": 7
          },
          "indices": 8,
          "material": 1
        }
      ]
    }
  ],
  "cameras": [
    {
      "type": "perspective",
      "perspective": {
        "aspectRatio": 0.30711206896551724,
        "yfov": 1.3089969389957472,
        "zfar": 10000,
        "znear": 0.1
      }
    }
  ],
  "extensionsUsed": [
    "KHR_lights_punctual"
  ]
}