<?xml version="1.0" encoding="iso-8859-1"?>
<!-- Uploaded to: SVG Repo, www.svgrepo.com, Generator: SVG Repo Mixer Tools -->
<svg fill="#000000" height="800px" width="800px" version="1.1" id="Capa_1" xmlns="http://www.w3.org/2000/svg" xmlns:xlink="http://www.w3.org/1999/xlink" 
	 viewBox="0 0 60 60" xml:space="preserve">
<g>
	<path d="M24.604,41c-0.353-0.396-0.692-0.813-1.017-1.247c-1.9-2.188-3.155-5.362-3.489-8.88C20.028,30.118,20,29.548,20,29
		s0.028-1.118,0.09-1.794c0.343-3.597,1.598-6.771,3.543-9.016c0.304-0.407,0.629-0.806,0.971-1.19H17c-4.411,0-8,5.383-8,12
		s3.589,12,8,12H24.604z"/>
	<path d="M41.735,28.024c-0.079-0.15-0.185-0.283-0.299-0.408l-0.26-0.206c-0.153-0.122-0.326-0.215-0.506-0.285
		c-0.031-0.011-0.062-0.019-0.093-0.029c-0.107-0.036-0.218-0.052-0.329-0.07C40.166,27.015,40.085,27,40,27c-1.103,0-2,0.897-2,2
		c0,0.957,0.677,1.758,1.577,1.953c0.013,0.003,0.026,0.006,0.038,0.008C39.74,30.986,39.868,31,40,31
		c0.205,0,0.399-0.04,0.585-0.097l0.08-0.029c0.584-0.207,1.022-0.669,1.218-1.228c0.007-0.021,0.013-0.042,0.02-0.063l0.047-0.361
		c0.054-0.418-0.025-0.83-0.209-1.187C41.739,28.032,41.737,28.028,41.735,28.024z"/>
	<path d="M44.96,17h-9.92C30.224,18.993,27,23.791,27,29s3.224,10.007,8.04,12h9.92C49.776,39.007,53,34.209,53,29
		S49.776,18.993,44.96,17z M48.758,35.652l-0.347,0.403l-0.528-0.063c-1.399-0.165-2.881-0.746-4.156-1.379
		c0.386,0.672,0.848,1.222,1.286,1.591c0.464,0.392,0.683,1.001,0.569,1.591c-0.111,0.586-0.518,1.05-1.085,1.24
		c-1.361,0.457-3.296,1.001-4.778,1.001c-0.263,0-0.511-0.017-0.738-0.052l-0.525-0.081l-0.227-0.48
		c-0.63-1.334-0.924-2.989-1.054-4.458c-0.431,0.727-0.691,1.467-0.789,2.076c-0.131,0.815-0.817,1.408-1.634,1.408h-0.001
		c-0.385,0-0.76-0.14-1.057-0.394c-1.345-1.146-3.07-2.811-3.655-4.238l-0.201-0.492l0.295-0.442
		c0.948-1.42,2.497-2.677,3.833-3.591c-0.339-0.054-0.682-0.087-1.029-0.087c-0.627,0-1.237,0.091-1.765,0.261
		c-0.169,0.055-0.345,0.082-0.521,0.082c-0.512,0-0.986-0.229-1.303-0.629c-0.31-0.393-0.42-0.899-0.303-1.39
		c0.411-1.721,1.113-4.015,2.118-5.182l0.347-0.403l0.528,0.063c1.399,0.165,2.881,0.746,4.156,1.379
		c-0.386-0.672-0.848-1.222-1.286-1.591c-0.464-0.392-0.683-1.002-0.57-1.592c0.112-0.586,0.519-1.049,1.087-1.239
		c1.6-0.538,4-1.186,5.516-0.949l0.525,0.081l0.227,0.48c0.63,1.335,0.923,2.99,1.053,4.459c0.432-0.728,0.691-1.467,0.789-2.076
		c0.132-0.817,0.819-1.409,1.635-1.409c0.385,0,0.76,0.14,1.057,0.394c1.346,1.146,3.072,2.813,3.655,4.238l0.201,0.492
		l-0.295,0.442c-0.948,1.42-2.496,2.677-3.833,3.591c0.339,0.054,0.683,0.087,1.029,0.087c0.627,0,1.236-0.09,1.764-0.26
		c0.659-0.213,1.399,0.01,1.825,0.547c0.31,0.393,0.42,0.899,0.303,1.39C50.465,32.191,49.763,34.485,48.758,35.652z"/>
	<path d="M5,12V9c0-0.553-0.447-1-1-1H1C0.447,8,0,8.447,0,9s0.447,1,1,1h2v2v3H0v6h3v3H2c-0.553,0-1,0.447-1,1s0.447,1,1,1h1v1H0
		v15h3v1H2c-0.553,0-1,0.447-1,1s0.447,1,1,1h1v1v5c0,0.553,0.447,1,1,1s1-0.447,1-1v-5h6v4h26v-4h23V12H5z M3,40H2V29h1V40z M3,19
		H2v-2h1V19z M7,15c0.552,0,1,0.448,1,1s-0.448,1-1,1s-1-0.448-1-1S6.448,15,7,15z M7,43c-0.552,0-1-0.448-1-1s0.448-1,1-1
		s1,0.448,1,1S7.552,43,7,43z M7,29c0-7.72,4.486-14,10-14h12.796l-2.095,1.765c-0.91,0.767-1.755,1.668-2.512,2.68
		c-1.72,1.989-2.805,4.765-3.101,7.872C22.026,28.002,22,28.514,22,29s0.026,0.998,0.082,1.612c0.303,3.179,1.388,5.954,3.063,7.887
		c0.802,1.068,1.646,1.97,2.557,2.736L29.796,43H17C11.486,43,7,36.72,7,29z M35,48h-1v-1h-2v1h-1v-1h-2v1h-1v-1h-2v1h-1v-1h-2v1h-1
		v-1h-2v1h-1v-1h-2v1h-1v-1h-2v1h-1v-2h22V48z M45.523,42.93L45.346,43H34.654l-0.178-0.07C28.809,40.682,25,35.084,25,29
		s3.809-11.682,9.477-13.93L34.654,15h10.691l0.178,0.07C51.191,17.318,55,22.916,55,29S51.191,40.682,45.523,42.93z M56,43
		c-0.552,0-1-0.448-1-1s0.448-1,1-1s1,0.448,1,1S56.552,43,56,43z M56,17c-0.552,0-1-0.448-1-1s0.448-1,1-1s1,0.448,1,1
		S56.552,17,56,17z"/>
</g>
</svg>